<svg xmlns="http://www.w3.org/2000/svg" xmlns:xlink="http://www.w3.org/1999/xlink" width="500" zoomAndPan="magnify" viewBox="0 0 375 374.999991" height="500" preserveAspectRatio="xMidYMid meet" version="1.0"><defs><g/></defs><rect x="-37.5" width="450" fill="#ffffff" y="-37.499999" height="449.999989" fill-opacity="1"/><rect x="-37.5" width="450" fill="#ffffff" y="-37.499999" height="449.999989" fill-opacity="1"/><g fill="#01605a" fill-opacity="1"><g transform="translate(83.144531, 206.351367)"><g><path d="M 1.640625 25.953125 C 1.910156 24.910156 2.195312 23.210938 2.5 20.859375 C 2.800781 18.503906 3.085938 15.832031 3.359375 12.84375 C 3.640625 9.863281 3.875 6.867188 4.0625 3.859375 C 4.257812 0.847656 4.425781 -1.84375 4.5625 -4.21875 C 4.695312 -6.601562 4.765625 -8.34375 4.765625 -9.4375 C 4.765625 -10.75 5.0625 -11.882812 5.65625 -12.84375 C 6.257812 -13.800781 7.382812 -14.28125 9.03125 -14.28125 C 10.945312 -14.28125 12.191406 -13.238281 12.765625 -11.15625 C 13.335938 -9.082031 13.625 -6.265625 13.625 -2.703125 C 13.625 0.140625 13.5 3.253906 13.25 6.640625 C 13.007812 10.035156 12.710938 13.429688 12.359375 16.828125 C 12.003906 20.222656 11.675781 23.289062 11.375 26.03125 C 11.070312 28.769531 10.863281 30.90625 10.75 32.4375 C 10.695312 33.53125 10.285156 34.320312 9.515625 34.8125 C 8.753906 35.300781 7.828125 35.546875 6.734375 35.546875 C 5.203125 35.546875 3.96875 35.066406 3.03125 34.109375 C 2.101562 33.148438 1.640625 31.828125 1.640625 30.140625 C 1.640625 29.703125 1.648438 29.234375 1.671875 28.734375 C 1.703125 28.242188 1.71875 27.78125 1.71875 27.34375 C 1.71875 27.070312 1.71875 26.828125 1.71875 26.609375 C 1.71875 26.390625 1.691406 26.171875 1.640625 25.953125 Z M 15.59375 -32.921875 C 15.488281 -32.210938 14.957031 -31.378906 14 -30.421875 C 13.039062 -29.460938 11.957031 -28.625 10.75 -27.90625 C 9.550781 -27.195312 8.566406 -26.84375 7.796875 -26.84375 C 6.753906 -26.84375 5.820312 -27.566406 5 -29.015625 C 4.1875 -30.472656 3.78125 -31.96875 3.78125 -33.5 C 3.78125 -34.925781 4.160156 -36.085938 4.921875 -36.984375 C 5.691406 -37.890625 6.707031 -38.34375 7.96875 -38.34375 C 9.0625 -38.34375 10.195312 -38.054688 11.375 -37.484375 C 12.550781 -36.910156 13.546875 -36.195312 14.359375 -35.34375 C 15.179688 -34.5 15.59375 -33.691406 15.59375 -32.921875 Z M 15.59375 -32.921875 "/></g></g></g><g fill="#01605a" fill-opacity="1"><g transform="translate(100.385855, 206.351367)"><g><path d="M 10.34375 3.03125 C 7.882812 2.875 5.957031 2.132812 4.5625 0.8125 C 3.164062 -0.5 2.46875 -2.109375 2.46875 -4.015625 C 2.46875 -5.171875 2.710938 -6.347656 3.203125 -7.546875 C 4.628906 -10.890625 6.546875 -13.78125 8.953125 -16.21875 C 11.359375 -18.65625 14.421875 -20.285156 18.140625 -21.109375 C 19.234375 -21.378906 20.285156 -21.664062 21.296875 -21.96875 C 22.316406 -22.269531 23.289062 -22.859375 24.21875 -23.734375 C 25.914062 -25.316406 27.613281 -26.109375 29.3125 -26.109375 C 30.570312 -26.109375 31.734375 -25.628906 32.796875 -24.671875 C 33.867188 -23.710938 34.597656 -22.273438 34.984375 -20.359375 C 35.253906 -18.992188 35.617188 -17.722656 36.078125 -16.546875 C 36.546875 -15.367188 37.410156 -14.367188 38.671875 -13.546875 C 39.328125 -13.109375 39.898438 -12.601562 40.390625 -12.03125 C 40.890625 -11.457031 41.140625 -10.785156 41.140625 -10.015625 C 41.140625 -8.648438 40.710938 -7.582031 39.859375 -6.8125 C 39.015625 -6.050781 38.003906 -5.519531 36.828125 -5.21875 C 35.648438 -4.914062 34.566406 -4.765625 33.578125 -4.765625 C 32.535156 -4.765625 31.519531 -4.882812 30.53125 -5.125 C 29.550781 -5.375 28.597656 -5.851562 27.671875 -6.5625 C 26.679688 -7.332031 25.75 -7.71875 24.875 -7.71875 C 23.5625 -7.71875 22.414062 -6.84375 21.4375 -5.09375 C 20.71875 -3.832031 19.753906 -2.554688 18.546875 -1.265625 C 17.347656 0.015625 16.117188 1.078125 14.859375 1.921875 C 13.597656 2.773438 12.445312 3.203125 11.40625 3.203125 C 11.132812 3.203125 10.78125 3.144531 10.34375 3.03125 Z M 10.34375 3.03125 "/></g></g></g><g fill="#01605a" fill-opacity="1"><g transform="translate(143.981765, 206.351367)"><g><path d="M 4.109375 -18.796875 C 4.328125 -20.003906 4.515625 -21.304688 4.671875 -22.703125 C 4.835938 -24.097656 5.113281 -25.425781 5.5 -26.6875 C 5.882812 -27.945312 6.445312 -28.972656 7.1875 -29.765625 C 7.925781 -30.554688 8.976562 -30.953125 10.34375 -30.953125 C 11.9375 -30.953125 13.414062 -30.265625 14.78125 -28.890625 C 16.144531 -27.523438 16.828125 -25.832031 16.828125 -23.8125 C 16.609375 -22.664062 16.289062 -21.472656 15.875 -20.234375 C 15.46875 -19.003906 15.265625 -17.757812 15.265625 -16.5 C 15.265625 -16.113281 15.398438 -15.71875 15.671875 -15.3125 C 15.953125 -14.90625 16.367188 -14.703125 16.921875 -14.703125 C 17.679688 -14.703125 18.375 -15.179688 19 -16.140625 C 19.632812 -17.097656 20.222656 -18.273438 20.765625 -19.671875 C 21.316406 -21.066406 21.894531 -22.445312 22.5 -23.8125 C 23.101562 -25.175781 23.8125 -26.335938 24.625 -27.296875 C 25.445312 -28.253906 26.40625 -28.734375 27.5 -28.734375 C 28.269531 -28.734375 29.132812 -28.472656 30.09375 -27.953125 C 31.050781 -27.429688 31.867188 -26.707031 32.546875 -25.78125 C 33.234375 -24.851562 33.578125 -23.757812 33.578125 -22.5 C 33.578125 -22.0625 33.5 -21.675781 33.34375 -21.34375 C 32.519531 -19.207031 31.5625 -16.960938 30.46875 -14.609375 C 29.375 -12.253906 28.097656 -10.035156 26.640625 -7.953125 C 25.191406 -5.878906 23.550781 -4.1875 21.71875 -2.875 C 19.882812 -1.5625 17.816406 -0.90625 15.515625 -0.90625 C 12.835938 -0.90625 10.648438 -1.601562 8.953125 -3 C 7.253906 -4.394531 6.019531 -6.101562 5.25 -8.125 C 4.488281 -10.15625 4.109375 -12.097656 4.109375 -13.953125 C 4.109375 -14.722656 4.148438 -15.519531 4.234375 -16.34375 C 4.316406 -17.164062 4.382812 -17.984375 4.4375 -18.796875 C 4.4375 -18.796875 4.40625 -18.796875 4.34375 -18.796875 C 4.289062 -18.796875 4.210938 -18.796875 4.109375 -18.796875 Z M 4.109375 -18.796875 "/></g></g></g><g fill="#01605a" fill-opacity="1"><g transform="translate(177.561292, 206.351367)"><g><path d="M 9.28125 7.390625 C 7.582031 7.222656 6.238281 6.710938 5.25 5.859375 C 4.269531 5.015625 3.78125 3.960938 3.78125 2.703125 C 3.78125 2.109375 3.957031 1.425781 4.3125 0.65625 C 4.664062 -0.113281 5.003906 -0.863281 5.328125 -1.59375 C 5.660156 -2.332031 5.828125 -2.976562 5.828125 -3.53125 C 5.828125 -4.300781 5.554688 -5.203125 5.015625 -6.234375 C 3.859375 -8.484375 3.28125 -10.945312 3.28125 -13.625 C 3.28125 -17.019531 4.179688 -20.195312 5.984375 -23.15625 C 7.796875 -26.113281 10.234375 -28.300781 13.296875 -29.71875 C 13.847656 -30 14.394531 -30.207031 14.9375 -30.34375 C 15.488281 -30.476562 16.039062 -30.546875 16.59375 -30.546875 C 18.125 -30.546875 19.367188 -30.050781 20.328125 -29.0625 C 21.285156 -28.082031 21.765625 -26.960938 21.765625 -25.703125 C 21.765625 -24.878906 21.53125 -24.148438 21.0625 -23.515625 C 20.59375 -22.890625 19.921875 -22.222656 19.046875 -21.515625 C 17.347656 -20.140625 16.070312 -18.972656 15.21875 -18.015625 C 14.375 -17.066406 13.953125 -16.125 13.953125 -15.1875 C 13.953125 -14.3125 14.28125 -13.328125 14.9375 -12.234375 C 15.59375 -11.140625 16.550781 -9.6875 17.8125 -7.875 C 18.582031 -7 19.171875 -6.082031 19.578125 -5.125 C 19.992188 -4.164062 20.203125 -3.195312 20.203125 -2.21875 C 20.203125 -0.0820312 19.554688 1.691406 18.265625 3.109375 C 16.984375 4.535156 15.492188 5.601562 13.796875 6.3125 C 12.097656 7.03125 10.59375 7.390625 9.28125 7.390625 Z M 9.28125 7.390625 "/></g></g></g><g fill="#01605a" fill-opacity="1"><g transform="translate(202.602256, 206.351367)"><g><path d="M 44.75 -25.859375 C 42.125 -22.742188 38.945312 -20.859375 35.21875 -20.203125 C 32.488281 -19.703125 31.125 -18.25 31.125 -15.84375 C 31.125 -15.1875 31.175781 -14.515625 31.28125 -13.828125 C 31.394531 -13.148438 31.453125 -12.507812 31.453125 -11.90625 C 31.453125 -10.644531 31.257812 -9.289062 30.875 -7.84375 C 30.488281 -6.394531 29.898438 -5.160156 29.109375 -4.140625 C 28.316406 -3.128906 27.234375 -2.625 25.859375 -2.625 C 24.492188 -2.625 23.15625 -3.035156 21.84375 -3.859375 C 20.53125 -4.679688 19.875 -6.019531 19.875 -7.875 C 19.875 -8.8125 19.925781 -9.742188 20.03125 -10.671875 C 20.144531 -11.597656 20.203125 -12.554688 20.203125 -13.546875 C 20.203125 -15.410156 20.019531 -16.710938 19.65625 -17.453125 C 19.300781 -18.191406 18.5 -18.5625 17.25 -18.5625 C 15.988281 -18.5625 14.601562 -18.394531 13.09375 -18.0625 C 11.59375 -17.738281 10.128906 -17.578125 8.703125 -17.578125 C 7.492188 -17.578125 6.21875 -17.820312 4.875 -18.3125 C 3.539062 -18.800781 2.394531 -19.523438 1.4375 -20.484375 C 0.476562 -21.441406 0 -22.601562 0 -23.96875 C 0 -25.945312 0.445312 -27.398438 1.34375 -28.328125 C 2.25 -29.253906 3.398438 -29.851562 4.796875 -30.125 C 6.191406 -30.40625 7.695312 -30.554688 9.3125 -30.578125 C 10.925781 -30.609375 12.429688 -30.691406 13.828125 -30.828125 C 15.222656 -30.960938 16.375 -31.359375 17.28125 -32.015625 C 18.1875 -32.679688 18.640625 -33.804688 18.640625 -35.390625 C 18.640625 -37.628906 18.445312 -39.898438 18.0625 -42.203125 C 17.675781 -44.503906 17.484375 -46.75 17.484375 -48.9375 C 17.484375 -49.757812 17.578125 -50.632812 17.765625 -51.5625 C 17.960938 -52.488281 18.414062 -53.28125 19.125 -53.9375 C 19.84375 -54.601562 20.941406 -54.9375 22.421875 -54.9375 C 23.734375 -54.9375 24.828125 -54.484375 25.703125 -53.578125 C 26.578125 -52.671875 27.367188 -51.726562 28.078125 -50.75 C 29.554688 -48.71875 30.5 -46.566406 30.90625 -44.296875 C 31.320312 -42.023438 31.554688 -39.710938 31.609375 -37.359375 C 31.660156 -35.441406 31.769531 -34.054688 31.9375 -33.203125 C 32.101562 -32.359375 32.566406 -31.742188 33.328125 -31.359375 C 34.097656 -30.984375 35.390625 -30.492188 37.203125 -29.890625 C 38.453125 -29.503906 39.71875 -28.992188 41 -28.359375 C 42.289062 -27.734375 43.539062 -26.898438 44.75 -25.859375 Z M 44.75 -25.859375 "/></g></g></g><g fill="#01605a" fill-opacity="1"><g transform="translate(247.347588, 206.351367)"><g><path d="M 9.859375 -16.5 C 11.222656 -16.394531 12.4375 -15.832031 13.5 -14.8125 C 14.570312 -13.800781 15.421875 -12.582031 16.046875 -11.15625 C 16.679688 -9.738281 17 -8.316406 17 -6.890625 C 17 -5.523438 16.4375 -4.15625 15.3125 -2.78125 C 14.1875 -1.414062 12.832031 -0.734375 11.25 -0.734375 C 9.988281 -0.734375 8.8125 -1.238281 7.71875 -2.25 C 6.625 -3.269531 5.75 -4.585938 5.09375 -6.203125 C 4.4375 -7.816406 4.109375 -9.472656 4.109375 -11.171875 C 4.109375 -13.304688 4.664062 -14.726562 5.78125 -15.4375 C 6.90625 -16.144531 8.265625 -16.5 9.859375 -16.5 Z M 16.171875 -39 C 15.953125 -37.300781 15.320312 -35.835938 14.28125 -34.609375 C 13.25 -33.378906 12.046875 -32.765625 10.671875 -32.765625 C 8.921875 -32.765625 7.398438 -33.363281 6.109375 -34.5625 C 4.828125 -35.769531 4.1875 -37.113281 4.1875 -38.59375 C 4.1875 -40.175781 4.757812 -41.582031 5.90625 -42.8125 C 7.0625 -44.050781 8.457031 -44.671875 10.09375 -44.671875 C 11.132812 -44.671875 12.109375 -44.367188 13.015625 -43.765625 C 13.921875 -43.160156 14.671875 -42.421875 15.265625 -41.546875 C 15.867188 -40.671875 16.171875 -39.820312 16.171875 -39 Z M 16.171875 -39 "/></g></g></g><g fill="#01605a" fill-opacity="1"><g transform="translate(266.805644, 206.351367)"><g><path d="M 9.28125 7.390625 C 7.582031 7.222656 6.238281 6.710938 5.25 5.859375 C 4.269531 5.015625 3.78125 3.960938 3.78125 2.703125 C 3.78125 2.109375 3.957031 1.425781 4.3125 0.65625 C 4.664062 -0.113281 5.003906 -0.863281 5.328125 -1.59375 C 5.660156 -2.332031 5.828125 -2.976562 5.828125 -3.53125 C 5.828125 -4.300781 5.554688 -5.203125 5.015625 -6.234375 C 3.859375 -8.484375 3.28125 -10.945312 3.28125 -13.625 C 3.28125 -17.019531 4.179688 -20.195312 5.984375 -23.15625 C 7.796875 -26.113281 10.234375 -28.300781 13.296875 -29.71875 C 13.847656 -30 14.394531 -30.207031 14.9375 -30.34375 C 15.488281 -30.476562 16.039062 -30.546875 16.59375 -30.546875 C 18.125 -30.546875 19.367188 -30.050781 20.328125 -29.0625 C 21.285156 -28.082031 21.765625 -26.960938 21.765625 -25.703125 C 21.765625 -24.878906 21.53125 -24.148438 21.0625 -23.515625 C 20.59375 -22.890625 19.921875 -22.222656 19.046875 -21.515625 C 17.347656 -20.140625 16.070312 -18.972656 15.21875 -18.015625 C 14.375 -17.066406 13.953125 -16.125 13.953125 -15.1875 C 13.953125 -14.3125 14.28125 -13.328125 14.9375 -12.234375 C 15.59375 -11.140625 16.550781 -9.6875 17.8125 -7.875 C 18.582031 -7 19.171875 -6.082031 19.578125 -5.125 C 19.992188 -4.164062 20.203125 -3.195312 20.203125 -2.21875 C 20.203125 -0.0820312 19.554688 1.691406 18.265625 3.109375 C 16.984375 4.535156 15.492188 5.601562 13.796875 6.3125 C 12.097656 7.03125 10.59375 7.390625 9.28125 7.390625 Z M 9.28125 7.390625 "/></g></g></g><g fill="#01605a" fill-opacity="1"><g transform="translate(146.317377, 237.61708)"><g><path d="M 8.1875 -0.765625 C 8.0625 -0.472656 7.800781 -0.25 7.40625 -0.09375 C 7.019531 0.0625 6.601562 0.140625 6.15625 0.140625 C 5.800781 0.140625 5.46875 0.09375 5.15625 0 C 4.84375 -0.09375 4.597656 -0.222656 4.421875 -0.390625 C 4.253906 -0.796875 4.144531 -1.273438 4.09375 -1.828125 C 4.039062 -2.378906 4.015625 -2.960938 4.015625 -3.578125 C 4.015625 -3.847656 4.015625 -4.113281 4.015625 -4.375 C 4.023438 -4.644531 4.039062 -4.921875 4.0625 -5.203125 C 4.070312 -5.597656 4.078125 -5.992188 4.078125 -6.390625 C 4.085938 -6.796875 4.085938 -7.195312 4.078125 -7.59375 C 3.921875 -7.644531 3.753906 -7.660156 3.578125 -7.640625 C 3.410156 -7.628906 3.238281 -7.617188 3.0625 -7.609375 C 3.007812 -7.597656 2.957031 -7.585938 2.90625 -7.578125 C 2.863281 -7.578125 2.816406 -7.578125 2.765625 -7.578125 C 2.554688 -7.554688 2.363281 -7.5625 2.1875 -7.59375 C 2.019531 -7.632812 1.882812 -7.738281 1.78125 -7.90625 C 1.757812 -7.976562 1.757812 -8.03125 1.78125 -8.0625 C 1.800781 -8.101562 1.820312 -8.144531 1.84375 -8.1875 C 1.875 -8.207031 1.894531 -8.234375 1.90625 -8.265625 C 1.925781 -8.304688 1.9375 -8.351562 1.9375 -8.40625 C 2.070312 -8.476562 2.257812 -8.523438 2.5 -8.546875 C 2.738281 -8.566406 3.003906 -8.578125 3.296875 -8.578125 C 3.585938 -8.585938 3.847656 -8.601562 4.078125 -8.625 L 4.09375 -8.71875 C 4.1875 -9.164062 4.296875 -9.582031 4.421875 -9.96875 C 4.554688 -10.351562 4.707031 -10.734375 4.875 -11.109375 C 4.96875 -11.097656 5.046875 -11.097656 5.109375 -11.109375 C 5.171875 -11.128906 5.226562 -11.15625 5.28125 -11.1875 C 5.363281 -11.226562 5.445312 -11.253906 5.53125 -11.265625 C 5.625 -11.285156 5.75 -11.265625 5.90625 -11.203125 C 5.738281 -10.878906 5.617188 -10.515625 5.546875 -10.109375 C 5.484375 -9.710938 5.453125 -9.25 5.453125 -8.71875 L 5.453125 -8.703125 C 5.941406 -8.710938 6.367188 -8.664062 6.734375 -8.5625 C 7.097656 -8.46875 7.382812 -8.25 7.59375 -7.90625 C 7.332031 -7.800781 6.992188 -7.726562 6.578125 -7.6875 C 6.160156 -7.644531 5.816406 -7.640625 5.546875 -7.671875 C 5.535156 -7.390625 5.519531 -7.097656 5.5 -6.796875 C 5.488281 -6.503906 5.46875 -6.207031 5.4375 -5.90625 C 5.382812 -5.09375 5.34375 -4.269531 5.3125 -3.4375 C 5.28125 -2.601562 5.328125 -1.828125 5.453125 -1.109375 C 5.660156 -0.960938 5.878906 -0.894531 6.109375 -0.90625 C 6.335938 -0.914062 6.566406 -0.941406 6.796875 -0.984375 C 6.828125 -0.984375 6.847656 -0.984375 6.859375 -0.984375 C 6.867188 -0.984375 6.894531 -0.988281 6.9375 -1 C 7.175781 -1.019531 7.40625 -1.03125 7.625 -1.03125 C 7.84375 -1.03125 8.03125 -0.941406 8.1875 -0.765625 Z M 8.1875 -0.765625 "/></g></g></g><g fill="#01605a" fill-opacity="1"><g transform="translate(156.176587, 237.61708)"><g><path d="M 9.46875 -4.59375 C 9.050781 -4.570312 8.578125 -4.550781 8.046875 -4.53125 C 7.515625 -4.519531 6.972656 -4.507812 6.421875 -4.5 C 5.867188 -4.5 5.347656 -4.492188 4.859375 -4.484375 C 4.367188 -4.484375 3.96875 -4.46875 3.65625 -4.4375 C 3.664062 -4.03125 3.695312 -3.617188 3.75 -3.203125 C 3.800781 -2.796875 3.910156 -2.429688 4.078125 -2.109375 C 4.328125 -1.628906 4.738281 -1.265625 5.3125 -1.015625 C 5.882812 -0.773438 6.519531 -0.800781 7.21875 -1.09375 C 7.488281 -1.207031 7.726562 -1.375 7.9375 -1.59375 C 8.15625 -1.8125 8.375 -2.007812 8.59375 -2.1875 C 8.820312 -2.363281 9.082031 -2.460938 9.375 -2.484375 C 9.4375 -2.347656 9.441406 -2.21875 9.390625 -2.09375 C 9.347656 -1.976562 9.289062 -1.859375 9.21875 -1.734375 C 9.164062 -1.640625 9.128906 -1.570312 9.109375 -1.53125 C 9.003906 -1.34375 8.890625 -1.140625 8.765625 -0.921875 C 8.648438 -0.703125 8.488281 -0.539062 8.28125 -0.4375 C 8.207031 -0.40625 8.066406 -0.375 7.859375 -0.34375 C 7.648438 -0.320312 7.460938 -0.28125 7.296875 -0.21875 C 7.210938 -0.175781 7.0625 -0.113281 6.84375 -0.03125 C 6.625 0.0507812 6.398438 0.125 6.171875 0.1875 C 5.941406 0.25 5.753906 0.28125 5.609375 0.28125 C 5.304688 0.269531 5.03125 0.191406 4.78125 0.046875 C 4.539062 -0.0859375 4.304688 -0.242188 4.078125 -0.421875 C 3.847656 -0.597656 3.601562 -0.738281 3.34375 -0.84375 C 2.9375 -1.269531 2.625 -1.796875 2.40625 -2.421875 C 2.195312 -3.054688 2.09375 -3.707031 2.09375 -4.375 C 2.09375 -5.03125 2.1875 -5.664062 2.375 -6.28125 C 2.570312 -6.90625 2.863281 -7.445312 3.25 -7.90625 C 3.382812 -8.082031 3.546875 -8.238281 3.734375 -8.375 C 3.929688 -8.507812 4.140625 -8.625 4.359375 -8.71875 C 4.972656 -9.019531 5.617188 -9.148438 6.296875 -9.109375 C 6.554688 -9.097656 6.8125 -9.0625 7.0625 -9 C 7.320312 -8.945312 7.566406 -8.851562 7.796875 -8.71875 C 8.097656 -8.582031 8.367188 -8.367188 8.609375 -8.078125 C 8.890625 -7.554688 9.117188 -6.984375 9.296875 -6.359375 C 9.484375 -5.742188 9.539062 -5.15625 9.46875 -4.59375 Z M 8.046875 -5.5 C 8.117188 -6.445312 7.96875 -7.128906 7.59375 -7.546875 C 7.21875 -7.960938 6.773438 -8.171875 6.265625 -8.171875 C 5.867188 -8.171875 5.46875 -8.050781 5.0625 -7.8125 C 4.65625 -7.582031 4.320312 -7.265625 4.0625 -6.859375 C 3.800781 -6.460938 3.671875 -5.992188 3.671875 -5.453125 C 4.015625 -5.472656 4.347656 -5.484375 4.671875 -5.484375 C 4.992188 -5.484375 5.304688 -5.472656 5.609375 -5.453125 C 6.035156 -5.453125 6.445312 -5.453125 6.84375 -5.453125 C 7.238281 -5.453125 7.640625 -5.46875 8.046875 -5.5 Z M 8.046875 -5.5 "/></g></g></g><g fill="#01605a" fill-opacity="1"><g transform="translate(167.707836, 237.61708)"><g><path d="M 8.296875 -7.875 C 8.460938 -7.488281 8.441406 -7.191406 8.234375 -6.984375 C 8.023438 -6.785156 7.78125 -6.6875 7.5 -6.6875 C 7.25 -6.6875 7.023438 -6.773438 6.828125 -6.953125 C 6.640625 -7.128906 6.59375 -7.421875 6.6875 -7.828125 C 6.445312 -7.785156 6.238281 -7.707031 6.0625 -7.59375 C 5.882812 -7.476562 5.734375 -7.335938 5.609375 -7.171875 C 5.441406 -6.960938 5.296875 -6.734375 5.171875 -6.484375 C 5.046875 -6.242188 4.890625 -6.03125 4.703125 -5.84375 C 4.640625 -5.363281 4.601562 -4.925781 4.59375 -4.53125 C 4.59375 -4.144531 4.597656 -3.769531 4.609375 -3.40625 C 4.609375 -3.125 4.609375 -2.832031 4.609375 -2.53125 C 4.609375 -2.238281 4.597656 -1.925781 4.578125 -1.59375 C 4.597656 -1.4375 4.679688 -1.316406 4.828125 -1.234375 C 4.972656 -1.148438 5.128906 -1.078125 5.296875 -1.015625 C 5.492188 -0.960938 5.671875 -0.90625 5.828125 -0.84375 C 5.992188 -0.78125 6.082031 -0.6875 6.09375 -0.5625 C 6.113281 -0.363281 6.046875 -0.234375 5.890625 -0.171875 C 5.742188 -0.117188 5.566406 -0.09375 5.359375 -0.09375 C 5.171875 -0.09375 4.976562 -0.101562 4.78125 -0.125 C 4.59375 -0.15625 4.445312 -0.171875 4.34375 -0.171875 C 4.125 -0.179688 3.910156 -0.164062 3.703125 -0.125 C 3.503906 -0.09375 3.304688 -0.0507812 3.109375 0 C 2.972656 0.0390625 2.84375 0.0703125 2.71875 0.09375 C 2.59375 0.125 2.472656 0.140625 2.359375 0.140625 C 2.210938 0.0351562 2.144531 -0.078125 2.15625 -0.203125 C 2.164062 -0.328125 2.195312 -0.453125 2.25 -0.578125 C 2.269531 -0.671875 2.289062 -0.734375 2.3125 -0.765625 C 2.53125 -0.828125 2.71875 -0.898438 2.875 -0.984375 C 3.039062 -1.066406 3.1875 -1.1875 3.3125 -1.34375 C 3.3125 -1.726562 3.3125 -2.085938 3.3125 -2.421875 C 3.3125 -2.765625 3.316406 -3.097656 3.328125 -3.421875 C 3.328125 -4.191406 3.320312 -4.925781 3.3125 -5.625 C 3.3125 -6.332031 3.257812 -7.109375 3.15625 -7.953125 C 3.070312 -7.953125 3 -7.945312 2.9375 -7.9375 C 2.882812 -7.925781 2.832031 -7.914062 2.78125 -7.90625 C 2.664062 -7.882812 2.5625 -7.867188 2.46875 -7.859375 C 2.375 -7.859375 2.265625 -7.890625 2.140625 -7.953125 C 2.035156 -8.046875 1.988281 -8.128906 2 -8.203125 C 2.007812 -8.285156 2.035156 -8.367188 2.078125 -8.453125 C 2.097656 -8.515625 2.117188 -8.566406 2.140625 -8.609375 C 2.234375 -8.628906 2.332031 -8.648438 2.4375 -8.671875 C 2.539062 -8.691406 2.640625 -8.707031 2.734375 -8.71875 C 2.785156 -8.738281 2.851562 -8.757812 2.9375 -8.78125 C 3.21875 -8.84375 3.484375 -8.894531 3.734375 -8.9375 C 3.992188 -8.976562 4.273438 -8.953125 4.578125 -8.859375 C 4.578125 -8.847656 4.578125 -8.828125 4.578125 -8.796875 C 4.585938 -8.773438 4.59375 -8.75 4.59375 -8.71875 C 4.59375 -8.625 4.585938 -8.53125 4.578125 -8.4375 C 4.578125 -8.34375 4.570312 -8.257812 4.5625 -8.1875 C 4.539062 -8.03125 4.53125 -7.890625 4.53125 -7.765625 C 4.53125 -7.640625 4.5625 -7.519531 4.625 -7.40625 C 4.8125 -7.488281 5.007812 -7.625 5.21875 -7.8125 C 5.4375 -8.007812 5.691406 -8.191406 5.984375 -8.359375 C 6.179688 -8.472656 6.398438 -8.554688 6.640625 -8.609375 C 6.878906 -8.671875 7.132812 -8.671875 7.40625 -8.609375 C 7.613281 -8.554688 7.769531 -8.457031 7.875 -8.3125 C 7.976562 -8.164062 8.117188 -8.019531 8.296875 -7.875 Z M 8.296875 -7.875 "/></g></g></g><g fill="#01605a" fill-opacity="1"><g transform="translate(177.317211, 237.61708)"><g><path d="M 9.59375 -0.65625 C 9.644531 -0.5625 9.660156 -0.492188 9.640625 -0.453125 C 9.628906 -0.410156 9.609375 -0.367188 9.578125 -0.328125 C 9.554688 -0.285156 9.535156 -0.25 9.515625 -0.21875 C 9.503906 -0.1875 9.503906 -0.140625 9.515625 -0.078125 C 9.148438 0.0976562 8.796875 0.15625 8.453125 0.09375 C 8.109375 0.0390625 7.820312 -0.109375 7.59375 -0.359375 C 7.363281 -0.609375 7.238281 -0.929688 7.21875 -1.328125 C 6.863281 -1.046875 6.488281 -0.78125 6.09375 -0.53125 C 5.695312 -0.28125 5.257812 -0.0703125 4.78125 0.09375 C 4.132812 0.0820312 3.578125 -0.0859375 3.109375 -0.421875 C 2.648438 -0.765625 2.285156 -1.191406 2.015625 -1.703125 C 1.960938 -2.367188 2.03125 -2.921875 2.21875 -3.359375 C 2.40625 -3.804688 2.664062 -4.164062 3 -4.4375 C 3.5 -4.84375 4.128906 -5.109375 4.890625 -5.234375 C 5.660156 -5.359375 6.460938 -5.453125 7.296875 -5.515625 C 7.328125 -6.054688 7.3125 -6.550781 7.25 -7 C 7.1875 -7.457031 7.046875 -7.820312 6.828125 -8.09375 C 6.617188 -8.375 6.289062 -8.519531 5.84375 -8.53125 C 5.445312 -8.539062 5.082031 -8.421875 4.75 -8.171875 C 4.425781 -7.921875 4.15625 -7.640625 3.9375 -7.328125 C 4 -7.179688 4.03125 -6.992188 4.03125 -6.765625 C 4.03125 -6.535156 4 -6.347656 3.9375 -6.203125 C 3.476562 -6.078125 3.144531 -6.09375 2.9375 -6.25 C 2.738281 -6.40625 2.625 -6.609375 2.59375 -6.859375 C 2.550781 -7.367188 2.75 -7.820312 3.1875 -8.21875 C 3.414062 -8.425781 3.664062 -8.59375 3.9375 -8.71875 C 4.320312 -8.914062 4.75 -9.050781 5.21875 -9.125 C 5.6875 -9.207031 6.144531 -9.222656 6.59375 -9.171875 C 7.039062 -9.117188 7.429688 -8.96875 7.765625 -8.71875 C 7.941406 -8.601562 8.085938 -8.457031 8.203125 -8.28125 C 8.347656 -8.101562 8.460938 -7.835938 8.546875 -7.484375 C 8.640625 -7.128906 8.6875 -6.828125 8.6875 -6.578125 C 8.6875 -6.210938 8.675781 -5.847656 8.65625 -5.484375 C 8.644531 -5.117188 8.628906 -4.742188 8.609375 -4.359375 C 8.585938 -3.859375 8.566406 -3.34375 8.546875 -2.8125 C 8.523438 -2.28125 8.523438 -1.734375 8.546875 -1.171875 C 8.609375 -0.984375 8.753906 -0.875 8.984375 -0.84375 C 9.222656 -0.820312 9.425781 -0.757812 9.59375 -0.65625 Z M 7.28125 -4.78125 C 6.957031 -4.695312 6.601562 -4.617188 6.21875 -4.546875 C 5.84375 -4.472656 5.472656 -4.394531 5.109375 -4.3125 C 4.742188 -4.226562 4.414062 -4.101562 4.125 -3.9375 C 3.832031 -3.78125 3.617188 -3.5625 3.484375 -3.28125 C 3.441406 -2.769531 3.460938 -2.316406 3.546875 -1.921875 C 3.640625 -1.535156 3.816406 -1.234375 4.078125 -1.015625 C 4.492188 -0.960938 4.914062 -0.988281 5.34375 -1.09375 C 5.78125 -1.207031 6.164062 -1.390625 6.5 -1.640625 C 6.832031 -1.890625 7.054688 -2.1875 7.171875 -2.53125 C 7.234375 -2.726562 7.273438 -2.976562 7.296875 -3.28125 C 7.316406 -3.582031 7.320312 -3.875 7.3125 -4.15625 C 7.300781 -4.445312 7.289062 -4.65625 7.28125 -4.78125 Z M 7.28125 -4.78125 "/></g></g></g><g fill="#01605a" fill-opacity="1"><g transform="translate(188.464076, 237.61708)"><g><path d="M 10.328125 -2.828125 C 10.296875 -2.742188 10.234375 -2.585938 10.140625 -2.359375 C 10.054688 -2.140625 9.960938 -1.914062 9.859375 -1.6875 C 9.753906 -1.46875 9.671875 -1.316406 9.609375 -1.234375 C 9.378906 -0.890625 9.054688 -0.640625 8.640625 -0.484375 C 8.234375 -0.328125 7.796875 -0.25 7.328125 -0.25 C 6.785156 -0.25 6.257812 -0.335938 5.75 -0.515625 C 5.238281 -0.691406 4.84375 -0.929688 4.5625 -1.234375 C 4.507812 -0.953125 4.472656 -0.601562 4.453125 -0.1875 C 4.441406 0.21875 4.445312 0.617188 4.46875 1.015625 C 4.488281 1.410156 4.519531 1.738281 4.5625 2 C 4.75 2.125 4.957031 2.238281 5.1875 2.34375 C 5.425781 2.445312 5.671875 2.535156 5.921875 2.609375 C 5.816406 2.910156 5.613281 3.109375 5.3125 3.203125 C 5.007812 3.296875 4.664062 3.335938 4.28125 3.328125 C 4.144531 3.328125 4 3.316406 3.84375 3.296875 C 3.6875 3.285156 3.53125 3.273438 3.375 3.265625 C 3.144531 3.253906 2.925781 3.238281 2.71875 3.21875 C 2.507812 3.207031 2.320312 3.210938 2.15625 3.234375 C 2.019531 3.160156 1.957031 3.039062 1.96875 2.875 C 1.976562 2.71875 1.988281 2.578125 2 2.453125 C 2.007812 2.421875 2.015625 2.398438 2.015625 2.390625 C 2.234375 2.304688 2.445312 2.222656 2.65625 2.140625 C 2.875 2.066406 3.050781 1.957031 3.1875 1.8125 C 3.195312 0.914062 3.195312 -0.113281 3.1875 -1.28125 C 3.175781 -2.445312 3.164062 -3.613281 3.15625 -4.78125 C 3.15625 -5.320312 3.148438 -5.847656 3.140625 -6.359375 C 3.128906 -6.867188 3.125 -7.359375 3.125 -7.828125 C 3.0625 -7.878906 2.984375 -7.894531 2.890625 -7.875 C 2.796875 -7.863281 2.691406 -7.851562 2.578125 -7.84375 C 2.460938 -7.8125 2.34375 -7.789062 2.21875 -7.78125 C 2.09375 -7.78125 1.988281 -7.8125 1.90625 -7.875 C 1.800781 -7.957031 1.757812 -8.039062 1.78125 -8.125 C 1.800781 -8.207031 1.835938 -8.285156 1.890625 -8.359375 C 1.921875 -8.410156 1.945312 -8.457031 1.96875 -8.5 C 1.988281 -8.550781 2.003906 -8.597656 2.015625 -8.640625 C 2.097656 -8.660156 2.171875 -8.675781 2.234375 -8.6875 C 2.304688 -8.695312 2.378906 -8.707031 2.453125 -8.71875 C 2.523438 -8.738281 2.59375 -8.753906 2.65625 -8.765625 C 2.726562 -8.773438 2.796875 -8.785156 2.859375 -8.796875 C 3.179688 -8.878906 3.488281 -8.929688 3.78125 -8.953125 C 4.082031 -8.984375 4.347656 -8.90625 4.578125 -8.71875 C 4.597656 -8.707031 4.617188 -8.6875 4.640625 -8.65625 C 4.671875 -8.625 4.703125 -8.597656 4.734375 -8.578125 C 4.640625 -8.460938 4.566406 -8.28125 4.515625 -8.03125 C 4.472656 -7.789062 4.445312 -7.570312 4.4375 -7.375 C 4.425781 -7.175781 4.421875 -7.078125 4.421875 -7.078125 C 4.710938 -7.421875 5.003906 -7.742188 5.296875 -8.046875 C 5.597656 -8.359375 5.945312 -8.582031 6.34375 -8.71875 C 6.46875 -8.769531 6.59375 -8.804688 6.71875 -8.828125 C 6.851562 -8.847656 7 -8.863281 7.15625 -8.875 C 7.519531 -8.882812 7.875 -8.832031 8.21875 -8.71875 C 8.632812 -8.570312 9 -8.320312 9.3125 -7.96875 C 9.632812 -7.625 9.898438 -7.226562 10.109375 -6.78125 C 10.367188 -6.195312 10.519531 -5.554688 10.5625 -4.859375 C 10.613281 -4.160156 10.535156 -3.484375 10.328125 -2.828125 Z M 9.078125 -4.328125 C 9.097656 -5.066406 8.992188 -5.78125 8.765625 -6.46875 C 8.546875 -7.15625 8.234375 -7.648438 7.828125 -7.953125 C 7.347656 -8.085938 6.953125 -8.113281 6.640625 -8.03125 C 6.328125 -7.957031 6.054688 -7.816406 5.828125 -7.609375 C 5.546875 -7.367188 5.3125 -7.078125 5.125 -6.734375 C 4.945312 -6.398438 4.757812 -6.082031 4.5625 -5.78125 C 4.476562 -5.226562 4.4375 -4.679688 4.4375 -4.140625 C 4.445312 -3.609375 4.519531 -3.117188 4.65625 -2.671875 C 4.75 -2.316406 4.898438 -2 5.109375 -1.71875 C 5.316406 -1.445312 5.585938 -1.238281 5.921875 -1.09375 C 6.171875 -0.988281 6.429688 -0.9375 6.703125 -0.9375 C 6.984375 -0.9375 7.207031 -0.960938 7.375 -1.015625 C 7.757812 -1.128906 8.070312 -1.351562 8.3125 -1.6875 C 8.5625 -2.019531 8.742188 -2.414062 8.859375 -2.875 C 8.984375 -3.34375 9.054688 -3.828125 9.078125 -4.328125 Z M 9.078125 -4.328125 "/></g></g></g><g fill="#01605a" fill-opacity="1"><g transform="translate(201.052347, 237.61708)"><g><path d="M 6.265625 -0.46875 C 6.265625 -0.332031 6.140625 -0.234375 5.890625 -0.171875 C 5.648438 -0.109375 5.359375 -0.0664062 5.015625 -0.046875 C 4.679688 -0.0234375 4.363281 -0.015625 4.0625 -0.015625 C 3.96875 -0.015625 3.875 -0.0078125 3.78125 0 C 3.695312 0 3.625 0 3.5625 0 C 3.519531 0 3.4375 -0.0078125 3.3125 -0.03125 C 3.1875 -0.0703125 3.050781 -0.101562 2.90625 -0.125 C 2.769531 -0.144531 2.640625 -0.125 2.515625 -0.0625 C 2.347656 -0.144531 2.269531 -0.234375 2.28125 -0.328125 C 2.300781 -0.429688 2.328125 -0.535156 2.359375 -0.640625 C 2.390625 -0.671875 2.410156 -0.710938 2.421875 -0.765625 C 2.429688 -0.816406 2.4375 -0.863281 2.4375 -0.90625 C 2.65625 -1.007812 2.875 -1.097656 3.09375 -1.171875 C 3.320312 -1.242188 3.492188 -1.378906 3.609375 -1.578125 C 3.609375 -2.328125 3.601562 -3.023438 3.59375 -3.671875 C 3.59375 -4.328125 3.59375 -4.984375 3.59375 -5.640625 C 3.601562 -6.296875 3.609375 -7.007812 3.609375 -7.78125 C 3.484375 -7.84375 3.351562 -7.875 3.21875 -7.875 C 3.082031 -7.875 2.953125 -7.867188 2.828125 -7.859375 C 2.742188 -7.859375 2.671875 -7.851562 2.609375 -7.84375 C 2.546875 -7.84375 2.488281 -7.847656 2.4375 -7.859375 C 2.4375 -7.921875 2.421875 -7.976562 2.390625 -8.03125 C 2.367188 -8.082031 2.34375 -8.132812 2.3125 -8.1875 C 2.257812 -8.25 2.222656 -8.3125 2.203125 -8.375 C 2.191406 -8.4375 2.242188 -8.519531 2.359375 -8.625 C 2.492188 -8.632812 2.625 -8.648438 2.75 -8.671875 C 2.882812 -8.691406 3.023438 -8.707031 3.171875 -8.71875 C 3.503906 -8.757812 3.832031 -8.789062 4.15625 -8.8125 C 4.488281 -8.84375 4.800781 -8.828125 5.09375 -8.765625 L 5.09375 -8.71875 C 5.09375 -8.082031 5.082031 -7.378906 5.0625 -6.609375 C 5.039062 -5.835938 5.015625 -5.066406 4.984375 -4.296875 C 4.953125 -3.535156 4.914062 -2.828125 4.875 -2.171875 C 4.875 -2.148438 4.875 -2.097656 4.875 -2.015625 C 4.863281 -1.941406 4.859375 -1.863281 4.859375 -1.78125 C 4.859375 -1.695312 4.863281 -1.628906 4.875 -1.578125 C 4.914062 -1.429688 5.007812 -1.316406 5.15625 -1.234375 C 5.300781 -1.148438 5.453125 -1.078125 5.609375 -1.015625 C 5.773438 -0.953125 5.925781 -0.878906 6.0625 -0.796875 C 6.195312 -0.710938 6.265625 -0.601562 6.265625 -0.46875 Z M 5.09375 -11.609375 C 5.226562 -11.296875 5.25 -11.019531 5.15625 -10.78125 C 5.0625 -10.539062 4.878906 -10.375 4.609375 -10.28125 C 4.335938 -10.1875 4.003906 -10.207031 3.609375 -10.34375 C 3.378906 -10.644531 3.289062 -10.9375 3.34375 -11.21875 C 3.394531 -11.5 3.507812 -11.722656 3.6875 -11.890625 C 3.894531 -12.078125 4.140625 -12.160156 4.421875 -12.140625 C 4.710938 -12.128906 4.9375 -11.953125 5.09375 -11.609375 Z M 5.09375 -11.609375 "/></g></g></g><g fill="#01605a" fill-opacity="1"><g transform="translate(208.932027, 237.61708)"><g><path d="M 6.234375 -8.53125 C 5.992188 -8.15625 5.851562 -7.625 5.8125 -6.9375 C 5.78125 -6.25 5.773438 -5.5 5.796875 -4.6875 C 5.796875 -4.5625 5.800781 -4.429688 5.8125 -4.296875 C 5.820312 -4.171875 5.832031 -4.046875 5.84375 -3.921875 C 5.882812 -3.046875 5.90625 -2.171875 5.90625 -1.296875 C 5.914062 -0.421875 5.847656 0.351562 5.703125 1.03125 C 5.597656 1.507812 5.441406 1.914062 5.234375 2.25 C 5.023438 2.59375 4.734375 2.820312 4.359375 2.9375 C 4.273438 2.96875 4.097656 3 3.828125 3.03125 C 3.554688 3.0625 3.265625 3.070312 2.953125 3.0625 C 2.648438 3.0625 2.390625 3.035156 2.171875 2.984375 C 1.984375 2.910156 1.8125 2.804688 1.65625 2.671875 C 1.507812 2.546875 1.328125 2.429688 1.109375 2.328125 C 1.023438 2.109375 0.957031 1.859375 0.90625 1.578125 C 0.851562 1.296875 0.863281 1.019531 0.9375 0.75 C 1.195312 0.4375 1.429688 0.289062 1.640625 0.3125 C 1.847656 0.332031 2.035156 0.429688 2.203125 0.609375 C 2.398438 0.816406 2.566406 1.082031 2.703125 1.40625 C 2.847656 1.726562 2.953125 2.003906 3.015625 2.234375 C 3.410156 2.242188 3.757812 2.148438 4.0625 1.953125 C 4.375 1.753906 4.554688 1.457031 4.609375 1.0625 C 4.703125 0.445312 4.734375 -0.320312 4.703125 -1.25 C 4.671875 -2.1875 4.628906 -3.128906 4.578125 -4.078125 C 4.535156 -4.753906 4.5 -5.40625 4.46875 -6.03125 C 4.4375 -6.65625 4.429688 -7.207031 4.453125 -7.6875 C 4.378906 -7.707031 4.300781 -7.707031 4.21875 -7.6875 C 4.132812 -7.675781 4.039062 -7.648438 3.9375 -7.609375 C 3.832031 -7.566406 3.71875 -7.53125 3.59375 -7.5 C 3.46875 -7.476562 3.320312 -7.484375 3.15625 -7.515625 C 3.101562 -7.628906 3.050781 -7.753906 3 -7.890625 C 2.957031 -8.023438 2.929688 -8.175781 2.921875 -8.34375 C 3.203125 -8.507812 3.539062 -8.632812 3.9375 -8.71875 C 4.257812 -8.789062 4.585938 -8.832031 4.921875 -8.84375 C 5.253906 -8.851562 5.554688 -8.8125 5.828125 -8.71875 C 5.898438 -8.707031 5.972656 -8.679688 6.046875 -8.640625 C 6.117188 -8.609375 6.179688 -8.570312 6.234375 -8.53125 Z M 5.953125 -10.71875 C 5.785156 -10.4375 5.554688 -10.285156 5.265625 -10.265625 C 4.972656 -10.253906 4.703125 -10.328125 4.453125 -10.484375 C 4.210938 -10.640625 4.082031 -10.847656 4.0625 -11.109375 C 4.03125 -11.484375 4.128906 -11.757812 4.359375 -11.9375 C 4.585938 -12.113281 4.835938 -12.191406 5.109375 -12.171875 C 5.390625 -12.140625 5.628906 -12 5.828125 -11.75 C 6.023438 -11.507812 6.066406 -11.164062 5.953125 -10.71875 Z M 5.953125 -10.71875 "/></g></g></g><g fill="#01605a" fill-opacity="1"><g transform="translate(217.522809, 237.61708)"><g><path d="M 9.59375 -0.65625 C 9.644531 -0.5625 9.660156 -0.492188 9.640625 -0.453125 C 9.628906 -0.410156 9.609375 -0.367188 9.578125 -0.328125 C 9.554688 -0.285156 9.535156 -0.25 9.515625 -0.21875 C 9.503906 -0.1875 9.503906 -0.140625 9.515625 -0.078125 C 9.148438 0.0976562 8.796875 0.15625 8.453125 0.09375 C 8.109375 0.0390625 7.820312 -0.109375 7.59375 -0.359375 C 7.363281 -0.609375 7.238281 -0.929688 7.21875 -1.328125 C 6.863281 -1.046875 6.488281 -0.78125 6.09375 -0.53125 C 5.695312 -0.28125 5.257812 -0.0703125 4.78125 0.09375 C 4.132812 0.0820312 3.578125 -0.0859375 3.109375 -0.421875 C 2.648438 -0.765625 2.285156 -1.191406 2.015625 -1.703125 C 1.960938 -2.367188 2.03125 -2.921875 2.21875 -3.359375 C 2.40625 -3.804688 2.664062 -4.164062 3 -4.4375 C 3.5 -4.84375 4.128906 -5.109375 4.890625 -5.234375 C 5.660156 -5.359375 6.460938 -5.453125 7.296875 -5.515625 C 7.328125 -6.054688 7.3125 -6.550781 7.25 -7 C 7.1875 -7.457031 7.046875 -7.820312 6.828125 -8.09375 C 6.617188 -8.375 6.289062 -8.519531 5.84375 -8.53125 C 5.445312 -8.539062 5.082031 -8.421875 4.75 -8.171875 C 4.425781 -7.921875 4.15625 -7.640625 3.9375 -7.328125 C 4 -7.179688 4.03125 -6.992188 4.03125 -6.765625 C 4.03125 -6.535156 4 -6.347656 3.9375 -6.203125 C 3.476562 -6.078125 3.144531 -6.09375 2.9375 -6.25 C 2.738281 -6.40625 2.625 -6.609375 2.59375 -6.859375 C 2.550781 -7.367188 2.75 -7.820312 3.1875 -8.21875 C 3.414062 -8.425781 3.664062 -8.59375 3.9375 -8.71875 C 4.320312 -8.914062 4.75 -9.050781 5.21875 -9.125 C 5.6875 -9.207031 6.144531 -9.222656 6.59375 -9.171875 C 7.039062 -9.117188 7.429688 -8.96875 7.765625 -8.71875 C 7.941406 -8.601562 8.085938 -8.457031 8.203125 -8.28125 C 8.347656 -8.101562 8.460938 -7.835938 8.546875 -7.484375 C 8.640625 -7.128906 8.6875 -6.828125 8.6875 -6.578125 C 8.6875 -6.210938 8.675781 -5.847656 8.65625 -5.484375 C 8.644531 -5.117188 8.628906 -4.742188 8.609375 -4.359375 C 8.585938 -3.859375 8.566406 -3.34375 8.546875 -2.8125 C 8.523438 -2.28125 8.523438 -1.734375 8.546875 -1.171875 C 8.609375 -0.984375 8.753906 -0.875 8.984375 -0.84375 C 9.222656 -0.820312 9.425781 -0.757812 9.59375 -0.65625 Z M 7.28125 -4.78125 C 6.957031 -4.695312 6.601562 -4.617188 6.21875 -4.546875 C 5.84375 -4.472656 5.472656 -4.394531 5.109375 -4.3125 C 4.742188 -4.226562 4.414062 -4.101562 4.125 -3.9375 C 3.832031 -3.78125 3.617188 -3.5625 3.484375 -3.28125 C 3.441406 -2.769531 3.460938 -2.316406 3.546875 -1.921875 C 3.640625 -1.535156 3.816406 -1.234375 4.078125 -1.015625 C 4.492188 -0.960938 4.914062 -0.988281 5.34375 -1.09375 C 5.78125 -1.207031 6.164062 -1.390625 6.5 -1.640625 C 6.832031 -1.890625 7.054688 -2.1875 7.171875 -2.53125 C 7.234375 -2.726562 7.273438 -2.976562 7.296875 -3.28125 C 7.316406 -3.582031 7.320312 -3.875 7.3125 -4.15625 C 7.300781 -4.445312 7.289062 -4.65625 7.28125 -4.78125 Z M 7.28125 -4.78125 "/></g></g></g></svg>