<svg width="20" height="20" viewBox="0 0 20 20" fill="none" xmlns="http://www.w3.org/2000/svg">
<path d="M10 10C8.69375 10 7.57552 9.5349 6.64531 8.60469C5.7151 7.67448 5.25 6.55625 5.25 5.25C5.25 3.94375 5.7151 2.82552 6.64531 1.89531C7.57552 0.965104 8.69375 0.5 10 0.5C11.3062 0.5 12.4245 0.965104 13.3547 1.89531C14.2849 2.82552 14.75 3.94375 14.75 5.25C14.75 6.55625 14.2849 7.67448 13.3547 8.60469C12.4245 9.5349 11.3062 10 10 10ZM0.5 19.5V16.175C0.5 15.5021 0.673177 14.8836 1.01953 14.3195C1.36589 13.7555 1.82604 13.325 2.4 13.0281C3.62708 12.4146 4.87396 11.9544 6.14062 11.6477C7.40729 11.3409 8.69375 11.1875 10 11.1875C11.3062 11.1875 12.5927 11.3409 13.8594 11.6477C15.126 11.9544 16.3729 12.4146 17.6 13.0281C18.174 13.325 18.6341 13.7555 18.9805 14.3195C19.3268 14.8836 19.5 15.5021 19.5 16.175V19.5H0.5ZM2.875 17.125H17.125V16.175C17.125 15.9573 17.0706 15.7594 16.9617 15.5812C16.8529 15.4031 16.7094 15.2646 16.5312 15.1656C15.4625 14.6312 14.3839 14.2305 13.2953 13.9633C12.2068 13.6961 11.1083 13.5625 10 13.5625C8.89167 13.5625 7.79323 13.6961 6.70469 13.9633C5.61615 14.2305 4.5375 14.6312 3.46875 15.1656C3.29062 15.2646 3.14714 15.4031 3.03828 15.5812C2.92943 15.7594 2.875 15.9573 2.875 16.175V17.125ZM10 7.625C10.6531 7.625 11.2122 7.39245 11.6773 6.92734C12.1424 6.46224 12.375 5.90312 12.375 5.25C12.375 4.59687 12.1424 4.03776 11.6773 3.57266C11.2122 3.10755 10.6531 2.875 10 2.875C9.34687 2.875 8.78776 3.10755 8.32266 3.57266C7.85755 4.03776 7.625 4.59687 7.625 5.25C7.625 5.90312 7.85755 6.46224 8.32266 6.92734C8.78776 7.39245 9.34687 7.625 10 7.625Z" fill="white"/>
</svg>
